<svg width="168" height="244" viewBox="0 0 168 244" fill="none" xmlns="http://www.w3.org/2000/svg">
<g clip-path="url(#clip0_126_43)">
<rect x="0.5" y="0.5" width="167" height="167" rx="4.5" fill="white" stroke="url(#paint0_linear_126_43)"/>
<path d="M2.82031 209.547V214H1.32031V202.625H5.51562C6.76042 202.625 7.73438 202.943 8.4375 203.578C9.14583 204.214 9.5 205.055 9.5 206.102C9.5 207.206 9.15365 208.057 8.46094 208.656C7.77344 209.25 6.78646 209.547 5.5 209.547H2.82031ZM2.82031 208.32H5.51562C6.31771 208.32 6.93229 208.133 7.35938 207.758C7.78646 207.378 8 206.831 8 206.117C8 205.44 7.78646 204.898 7.35938 204.492C6.93229 204.086 6.34635 203.875 5.60156 203.859H2.82031V208.32ZM16.3125 214C16.2292 213.833 16.1615 213.536 16.1094 213.109C15.4375 213.807 14.6354 214.156 13.7031 214.156C12.8698 214.156 12.1849 213.922 11.6484 213.453C11.1172 212.979 10.8516 212.38 10.8516 211.656C10.8516 210.776 11.1849 210.094 11.8516 209.609C12.5234 209.12 13.4661 208.875 14.6797 208.875H16.0859V208.211C16.0859 207.706 15.9349 207.305 15.6328 207.008C15.3307 206.706 14.8854 206.555 14.2969 206.555C13.7812 206.555 13.349 206.685 13 206.945C12.651 207.206 12.4766 207.521 12.4766 207.891H11.0234C11.0234 207.469 11.1719 207.062 11.4688 206.672C11.7708 206.276 12.1771 205.964 12.6875 205.734C13.2031 205.505 13.7682 205.391 14.3828 205.391C15.3568 205.391 16.1198 205.635 16.6719 206.125C17.224 206.609 17.5104 207.279 17.5312 208.133V212.023C17.5312 212.799 17.6302 213.417 17.8281 213.875V214H16.3125ZM13.9141 212.898C14.3672 212.898 14.7969 212.781 15.2031 212.547C15.6094 212.312 15.9036 212.008 16.0859 211.633V209.898H14.9531C13.1823 209.898 12.2969 210.417 12.2969 211.453C12.2969 211.906 12.4479 212.26 12.75 212.516C13.0521 212.771 13.4401 212.898 13.9141 212.898ZM22.4375 211.883L24.4062 205.547H25.9531L22.5547 215.305C22.0286 216.711 21.1927 217.414 20.0469 217.414L19.7734 217.391L19.2344 217.289V216.117L19.625 216.148C20.1146 216.148 20.4948 216.049 20.7656 215.852C21.0417 215.654 21.2682 215.292 21.4453 214.766L21.7656 213.906L18.75 205.547H20.3281L22.4375 211.883ZM28.6094 205.547L28.6484 206.484C29.2682 205.755 30.1042 205.391 31.1562 205.391C32.3385 205.391 33.1432 205.844 33.5703 206.75C33.8516 206.344 34.2161 206.016 34.6641 205.766C35.1172 205.516 35.651 205.391 36.2656 205.391C38.1198 205.391 39.0625 206.372 39.0938 208.336V214H37.6484V208.422C37.6484 207.818 37.5104 207.367 37.2344 207.07C36.9583 206.768 36.4948 206.617 35.8438 206.617C35.3073 206.617 34.862 206.779 34.5078 207.102C34.1536 207.419 33.9479 207.849 33.8906 208.391V214H32.4375V208.461C32.4375 207.232 31.8359 206.617 30.6328 206.617C29.6849 206.617 29.0365 207.021 28.6875 207.828V214H27.2422V205.547H28.6094ZM44.7891 214.156C43.6432 214.156 42.7109 213.781 41.9922 213.031C41.2734 212.276 40.9141 211.268 40.9141 210.008V209.742C40.9141 208.904 41.0729 208.156 41.3906 207.5C41.7135 206.839 42.1615 206.323 42.7344 205.953C43.3125 205.578 43.9375 205.391 44.6094 205.391C45.7083 205.391 46.5625 205.753 47.1719 206.477C47.7812 207.201 48.0859 208.237 48.0859 209.586V210.188H42.3594C42.3802 211.021 42.6224 211.695 43.0859 212.211C43.5547 212.721 44.1484 212.977 44.8672 212.977C45.3776 212.977 45.8099 212.872 46.1641 212.664C46.5182 212.456 46.8281 212.18 47.0938 211.836L47.9766 212.523C47.2682 213.612 46.2057 214.156 44.7891 214.156ZM44.6094 206.578C44.026 206.578 43.5365 206.792 43.1406 207.219C42.7448 207.641 42.5 208.234 42.4062 209H46.6406V208.891C46.599 208.156 46.401 207.589 46.0469 207.188C45.6927 206.781 45.2135 206.578 44.6094 206.578ZM51.1328 205.547L51.1797 206.609C51.8255 205.797 52.6693 205.391 53.7109 205.391C55.4974 205.391 56.3984 206.398 56.4141 208.414V214H54.9688V208.406C54.9635 207.797 54.8229 207.346 54.5469 207.055C54.276 206.763 53.8516 206.617 53.2734 206.617C52.8047 206.617 52.3932 206.742 52.0391 206.992C51.6849 207.242 51.4089 207.57 51.2109 207.977V214H49.7656V205.547H51.1328ZM60.5547 203.5V205.547H62.1328V206.664H60.5547V211.906C60.5547 212.245 60.625 212.5 60.7656 212.672C60.9062 212.839 61.1458 212.922 61.4844 212.922C61.651 212.922 61.8802 212.891 62.1719 212.828V214C61.7917 214.104 61.4219 214.156 61.0625 214.156C60.4167 214.156 59.9297 213.961 59.6016 213.57C59.2734 213.18 59.1094 212.625 59.1094 211.906V206.664H57.5703V205.547H59.1094V203.5H60.5547ZM67.4531 209.703C67.4531 208.385 67.7578 207.339 68.3672 206.562C68.9766 205.781 69.7839 205.391 70.7891 205.391C71.8203 205.391 72.625 205.755 73.2031 206.484L73.2734 205.547H74.5938V213.797C74.5938 214.891 74.2682 215.753 73.6172 216.383C72.9714 217.013 72.1016 217.328 71.0078 217.328C70.3984 217.328 69.8021 217.198 69.2188 216.938C68.6354 216.677 68.1901 216.32 67.8828 215.867L68.6328 215C69.2526 215.766 70.0104 216.148 70.9062 216.148C71.6094 216.148 72.1562 215.951 72.5469 215.555C72.9427 215.159 73.1406 214.602 73.1406 213.883V213.156C72.5625 213.823 71.7734 214.156 70.7734 214.156C69.7839 214.156 68.9818 213.758 68.3672 212.961C67.7578 212.164 67.4531 211.078 67.4531 209.703ZM68.9062 209.867C68.9062 210.82 69.1016 211.57 69.4922 212.117C69.8828 212.659 70.4297 212.93 71.1328 212.93C72.0443 212.93 72.7135 212.516 73.1406 211.688V207.828C72.6979 207.021 72.0339 206.617 71.1484 206.617C70.4453 206.617 69.8958 206.891 69.5 207.438C69.1042 207.984 68.9062 208.794 68.9062 209.867ZM76.3984 209.695C76.3984 208.867 76.5599 208.122 76.8828 207.461C77.2109 206.799 77.6641 206.289 78.2422 205.93C78.8255 205.57 79.4896 205.391 80.2344 205.391C81.3854 205.391 82.3151 205.789 83.0234 206.586C83.737 207.383 84.0938 208.443 84.0938 209.766V209.867C84.0938 210.69 83.9349 211.43 83.6172 212.086C83.3047 212.737 82.8542 213.245 82.2656 213.609C81.6823 213.974 81.0104 214.156 80.25 214.156C79.1042 214.156 78.1745 213.758 77.4609 212.961C76.7526 212.164 76.3984 211.109 76.3984 209.797V209.695ZM77.8516 209.867C77.8516 210.805 78.0677 211.557 78.5 212.125C78.9375 212.693 79.5208 212.977 80.25 212.977C80.9844 212.977 81.5677 212.69 82 212.117C82.4323 211.539 82.6484 210.732 82.6484 209.695C82.6484 208.768 82.4271 208.018 81.9844 207.445C81.5469 206.867 80.9635 206.578 80.2344 206.578C79.5208 206.578 78.9453 206.862 78.5078 207.43C78.0703 207.997 77.8516 208.81 77.8516 209.867ZM89.4141 214.156C88.2682 214.156 87.3359 213.781 86.6172 213.031C85.8984 212.276 85.5391 211.268 85.5391 210.008V209.742C85.5391 208.904 85.6979 208.156 86.0156 207.5C86.3385 206.839 86.7865 206.323 87.3594 205.953C87.9375 205.578 88.5625 205.391 89.2344 205.391C90.3333 205.391 91.1875 205.753 91.7969 206.477C92.4062 207.201 92.7109 208.237 92.7109 209.586V210.188H86.9844C87.0052 211.021 87.2474 211.695 87.7109 212.211C88.1797 212.721 88.7734 212.977 89.4922 212.977C90.0026 212.977 90.4349 212.872 90.7891 212.664C91.1432 212.456 91.4531 212.18 91.7188 211.836L92.6016 212.523C91.8932 213.612 90.8307 214.156 89.4141 214.156ZM89.2344 206.578C88.651 206.578 88.1615 206.792 87.7656 207.219C87.3698 207.641 87.125 208.234 87.0312 209H91.2656V208.891C91.224 208.156 91.026 207.589 90.6719 207.188C90.3177 206.781 89.8385 206.578 89.2344 206.578ZM99.3125 211.758C99.3125 211.367 99.1641 211.065 98.8672 210.852C98.5755 210.633 98.0625 210.445 97.3281 210.289C96.599 210.133 96.0182 209.945 95.5859 209.727C95.1589 209.508 94.8411 209.247 94.6328 208.945C94.4297 208.643 94.3281 208.284 94.3281 207.867C94.3281 207.174 94.6198 206.589 95.2031 206.109C95.7917 205.63 96.5417 205.391 97.4531 205.391C98.4115 205.391 99.1875 205.638 99.7812 206.133C100.38 206.628 100.68 207.26 100.68 208.031H99.2266C99.2266 207.635 99.0573 207.294 98.7188 207.008C98.3854 206.721 97.9635 206.578 97.4531 206.578C96.9271 206.578 96.5156 206.693 96.2188 206.922C95.9219 207.151 95.7734 207.451 95.7734 207.82C95.7734 208.169 95.9115 208.432 96.1875 208.609C96.4635 208.786 96.9609 208.956 97.6797 209.117C98.4036 209.279 98.9896 209.471 99.4375 209.695C99.8854 209.919 100.216 210.19 100.43 210.508C100.648 210.82 100.758 211.203 100.758 211.656C100.758 212.411 100.456 213.018 99.8516 213.477C99.2474 213.93 98.4635 214.156 97.5 214.156C96.8229 214.156 96.224 214.036 95.7031 213.797C95.1823 213.557 94.7734 213.224 94.4766 212.797C94.1849 212.365 94.0391 211.898 94.0391 211.398H95.4844C95.5104 211.883 95.7031 212.268 96.0625 212.555C96.4271 212.836 96.9062 212.977 97.5 212.977C98.0469 212.977 98.4844 212.867 98.8125 212.648C99.1458 212.424 99.3125 212.128 99.3125 211.758ZM108.57 203.5V205.547H110.148V206.664H108.57V211.906C108.57 212.245 108.641 212.5 108.781 212.672C108.922 212.839 109.161 212.922 109.5 212.922C109.667 212.922 109.896 212.891 110.188 212.828V214C109.807 214.104 109.438 214.156 109.078 214.156C108.432 214.156 107.945 213.961 107.617 213.57C107.289 213.18 107.125 212.625 107.125 211.906V206.664H105.586V205.547H107.125V203.5H108.57ZM111.305 209.695C111.305 208.867 111.466 208.122 111.789 207.461C112.117 206.799 112.57 206.289 113.148 205.93C113.732 205.57 114.396 205.391 115.141 205.391C116.292 205.391 117.221 205.789 117.93 206.586C118.643 207.383 119 208.443 119 209.766V209.867C119 210.69 118.841 211.43 118.523 212.086C118.211 212.737 117.76 213.245 117.172 213.609C116.589 213.974 115.917 214.156 115.156 214.156C114.01 214.156 113.081 213.758 112.367 212.961C111.659 212.164 111.305 211.109 111.305 209.797V209.695ZM112.758 209.867C112.758 210.805 112.974 211.557 113.406 212.125C113.844 212.693 114.427 212.977 115.156 212.977C115.891 212.977 116.474 212.69 116.906 212.117C117.339 211.539 117.555 210.732 117.555 209.695C117.555 208.768 117.333 208.018 116.891 207.445C116.453 206.867 115.87 206.578 115.141 206.578C114.427 206.578 113.852 206.862 113.414 207.43C112.977 207.997 112.758 208.81 112.758 209.867ZM126.742 203.5V205.547H128.32V206.664H126.742V211.906C126.742 212.245 126.812 212.5 126.953 212.672C127.094 212.839 127.333 212.922 127.672 212.922C127.839 212.922 128.068 212.891 128.359 212.828V214C127.979 214.104 127.609 214.156 127.25 214.156C126.604 214.156 126.117 213.961 125.789 213.57C125.461 213.18 125.297 212.625 125.297 211.906V206.664H123.758V205.547H125.297V203.5H126.742ZM131.461 206.57C132.102 205.784 132.935 205.391 133.961 205.391C135.747 205.391 136.648 206.398 136.664 208.414V214H135.219V208.406C135.214 207.797 135.073 207.346 134.797 207.055C134.526 206.763 134.102 206.617 133.523 206.617C133.055 206.617 132.643 206.742 132.289 206.992C131.935 207.242 131.659 207.57 131.461 207.977V214H130.016V202H131.461V206.57ZM142.336 214.156C141.19 214.156 140.258 213.781 139.539 213.031C138.82 212.276 138.461 211.268 138.461 210.008V209.742C138.461 208.904 138.62 208.156 138.938 207.5C139.26 206.839 139.708 206.323 140.281 205.953C140.859 205.578 141.484 205.391 142.156 205.391C143.255 205.391 144.109 205.753 144.719 206.477C145.328 207.201 145.633 208.237 145.633 209.586V210.188H139.906C139.927 211.021 140.169 211.695 140.633 212.211C141.102 212.721 141.695 212.977 142.414 212.977C142.924 212.977 143.357 212.872 143.711 212.664C144.065 212.456 144.375 212.18 144.641 211.836L145.523 212.523C144.815 213.612 143.753 214.156 142.336 214.156ZM142.156 206.578C141.573 206.578 141.083 206.792 140.688 207.219C140.292 207.641 140.047 208.234 139.953 209H144.188V208.891C144.146 208.156 143.948 207.589 143.594 207.188C143.24 206.781 142.76 206.578 142.156 206.578ZM2.45312 234.82H7.39844V236H0.6875V234.938L5.35156 228.742H0.757812V227.547H7.16406V228.57L2.45312 234.82ZM8.52344 231.695C8.52344 230.867 8.6849 230.122 9.00781 229.461C9.33594 228.799 9.78906 228.289 10.3672 227.93C10.9505 227.57 11.6146 227.391 12.3594 227.391C13.5104 227.391 14.4401 227.789 15.1484 228.586C15.862 229.383 16.2188 230.443 16.2188 231.766V231.867C16.2188 232.69 16.0599 233.43 15.7422 234.086C15.4297 234.737 14.9792 235.245 14.3906 235.609C13.8073 235.974 13.1354 236.156 12.375 236.156C11.2292 236.156 10.2995 235.758 9.58594 234.961C8.8776 234.164 8.52344 233.109 8.52344 231.797V231.695ZM9.97656 231.867C9.97656 232.805 10.1927 233.557 10.625 234.125C11.0625 234.693 11.6458 234.977 12.375 234.977C13.1094 234.977 13.6927 234.69 14.125 234.117C14.5573 233.539 14.7734 232.732 14.7734 231.695C14.7734 230.768 14.5521 230.018 14.1094 229.445C13.6719 228.867 13.0885 228.578 12.3594 228.578C11.6458 228.578 11.0703 228.862 10.6328 229.43C10.1953 229.997 9.97656 230.81 9.97656 231.867ZM17.6484 231.695C17.6484 230.867 17.8099 230.122 18.1328 229.461C18.4609 228.799 18.9141 228.289 19.4922 227.93C20.0755 227.57 20.7396 227.391 21.4844 227.391C22.6354 227.391 23.5651 227.789 24.2734 228.586C24.987 229.383 25.3438 230.443 25.3438 231.766V231.867C25.3438 232.69 25.1849 233.43 24.8672 234.086C24.5547 234.737 24.1042 235.245 23.5156 235.609C22.9323 235.974 22.2604 236.156 21.5 236.156C20.3542 236.156 19.4245 235.758 18.7109 234.961C18.0026 234.164 17.6484 233.109 17.6484 231.797V231.695ZM19.1016 231.867C19.1016 232.805 19.3177 233.557 19.75 234.125C20.1875 234.693 20.7708 234.977 21.5 234.977C22.2344 234.977 22.8177 234.69 23.25 234.117C23.6823 233.539 23.8984 232.732 23.8984 231.695C23.8984 230.768 23.6771 230.018 23.2344 229.445C22.7969 228.867 22.2135 228.578 21.4844 228.578C20.7708 228.578 20.1953 228.862 19.7578 229.43C19.3203 229.997 19.1016 230.81 19.1016 231.867Z" fill="#333B41"/>
<path d="M79.9738 43.264C79.6244 42.9363 79.2749 42.6961 78.9472 42.5213C78.6196 42.3684 78.2483 42.2811 77.8333 42.2811C77.3528 42.2811 77.0033 42.3903 76.763 42.5869C76.5228 42.7834 76.3917 43.1111 76.3917 43.5479C76.3917 43.8537 76.5228 44.1377 76.7849 44.3342C77.047 44.5527 77.3528 44.7492 77.7459 44.9458C78.1391 45.1424 78.5541 45.339 78.9909 45.5574C79.4278 45.7758 79.8428 46.0161 80.2359 46.3219C80.6291 46.6277 80.9349 46.9771 81.197 47.414C81.4591 47.8508 81.5902 48.375 81.5902 48.9866C81.5902 49.9258 81.3281 50.734 80.8257 51.4111C80.3233 52.0882 79.537 52.5251 78.5322 52.7653V54.8185H76.632V52.8527C76.0641 52.7872 75.4525 52.6343 74.8191 52.3722C74.1856 52.1101 73.6396 51.7824 73.1809 51.3674L74.4478 49.4235C74.9501 49.7948 75.4307 50.0787 75.8675 50.2753C76.3262 50.4719 76.7849 50.5593 77.2436 50.5593C77.7896 50.5593 78.2046 50.4501 78.4449 50.2316C78.707 50.0132 78.838 49.6637 78.838 49.2051C78.838 48.8556 78.707 48.5716 78.4449 48.3314C78.1828 48.0911 77.877 47.8727 77.4838 47.6543C77.0907 47.4358 76.6757 47.2174 76.2388 46.999C75.802 46.7806 75.387 46.5185 74.9938 46.2127C74.6007 45.9069 74.2949 45.5574 74.0328 45.1424C73.7706 44.7274 73.6396 44.2469 73.6396 43.6571C73.6396 42.6961 73.9017 41.8879 74.4259 41.2545C74.9501 40.6211 75.6928 40.2061 76.6101 40.0313V38H78.5104V39.9876C79.1438 40.075 79.6899 40.2716 80.1704 40.5555C80.6509 40.8395 81.0659 41.189 81.4591 41.604L79.9738 43.264Z" fill="#333B41"/>
<path fill-rule="evenodd" clip-rule="evenodd" d="M127 114L123.406 111.789L115.389 126.164L119.26 128.099L127 114Z" fill="#333B41"/>
<path fill-rule="evenodd" clip-rule="evenodd" d="M121.471 111.236C112.072 100.454 103.778 103.219 92.7209 110.406C83.0454 116.764 75.858 112.341 68.6705 115.382C67.0119 116.211 64.5239 118.147 66.7354 120.082C67.8412 120.911 72.2642 121.74 73.6464 121.464C81.1103 119.805 83.3219 123.123 94.6559 120.911C91.3387 123.399 80.5575 121.74 73.9229 122.57C68.6705 123.675 60.1008 119.529 67.0119 114.829C63.971 113.447 61.2066 112.618 57.8893 112.341C54.572 109.853 49.3197 106.813 46.5552 105.707C44.3437 104.325 38.8149 104.877 42.4086 108.471C46.0024 111.788 55.6778 119.252 57.6129 120.358C65.3532 125.058 72.5407 128.375 80.0046 132.522C80.0046 132.522 82.4926 133.904 87.4685 131.969C91.0622 130.31 107.096 121.464 110.966 122.846C113.177 123.675 114.283 124.228 114.283 124.228L121.471 111.236Z" stroke="#333B41" stroke-width="1.5"/>
<path fill-rule="evenodd" clip-rule="evenodd" d="M74.7528 110.406C75.3057 109.3 75.8586 108.471 76.6879 108.195C77.5172 107.918 77.7937 108.471 78.3465 109.024C78.8994 109.853 79.1759 110.13 80.0052 110.683C80.2816 110.959 80.8345 110.959 81.1109 110.959L80.5581 110.683C79.7287 110.13 79.1759 109.577 79.4523 108.471C79.4523 108.195 79.1759 107.642 79.7287 107.642C80.2816 107.918 81.1109 108.471 81.9403 108.471C81.9403 108.471 82.7696 108.747 82.4931 108.471C82.4931 108.195 81.9403 107.918 81.6638 107.642C80.0052 106.259 80.0052 105.983 80.0052 104.048C80.2816 101.284 79.1759 99.072 77.2408 97.1369C72.8177 92.7139 74.7528 86.6322 78.0701 80.8269C81.1109 75.5746 83.8753 74.7452 80.8345 68.3871C79.7287 65.6227 77.7937 62.8583 77.5172 61.1996C77.5172 60.6468 77.5172 60.9232 77.5172 61.1996C77.2408 62.8583 78.3465 65.3463 79.4523 67.8342C81.9403 73.363 81.3874 73.9159 77.7937 78.8918C73.9235 83.8678 71.1591 89.1202 72.8177 94.649C73.9235 98.5191 79.4523 102.389 76.6879 104.877C75.3057 105.983 73.3706 108.747 73.0942 110.406C72.8177 111.235 72.8177 111.235 72.5413 111.788C72.2648 112.065 72.5413 112.065 72.8177 112.065C74.1999 111.788 74.1999 111.235 74.7528 110.406Z" fill="#333B41"/>
<path d="M93.068 84.529L93.9801 84.2684L94.0232 85.2161C94.171 88.4683 92.7785 92.3664 90.4893 95.4425C89.3023 97.0375 87.8405 98.4545 86.1798 99.4487C87.2729 99.074 88.4759 98.3838 89.693 97.1695C92.9277 93.6792 93.8196 89.2419 94.8558 83.5536C93.8903 83.6402 92.939 83.8564 91.9621 84.1392C91.3211 84.3247 90.6773 84.5364 90.0111 84.757C89.9707 84.7704 89.9303 84.7838 89.8898 84.7972C89.2724 85.0018 88.6358 85.2127 87.983 85.4089C82.8544 87.3021 80.0789 89.6595 79.0705 92.3645C78.8202 93.654 78.8551 94.8192 79.2935 95.696L79.3303 95.7696L79.3502 95.8495C79.5236 96.5427 80.2251 97.1847 81.1664 97.7019C82.2176 96.713 82.9504 95.8296 83.6711 94.9124C83.4958 95.0928 83.3319 95.265 83.177 95.428C83.0512 95.5602 82.9313 95.6863 82.8158 95.8057C82.6195 96.0085 82.4294 96.1985 82.2546 96.3497C82.0972 96.4858 81.8775 96.6584 81.6242 96.7429L81.4353 96.8059L81.24 96.7668C80.3452 96.5879 79.6727 96.0935 79.397 95.2664C79.1499 94.5252 79.2728 93.6546 79.5608 92.7804C80.0551 90.8473 81.5708 89.3363 83.8139 88.0545C86.0718 86.7643 89.1837 85.6388 93.068 84.529Z" stroke="#333B41" stroke-width="1.5"/>
<path d="M66.3596 66.3644C64.8834 65.8492 63.5975 65.4005 62.1588 65.1376C62.2081 65.3789 62.2565 65.6175 62.3044 65.8535C62.435 66.4963 62.5616 67.1198 62.6907 67.7246C62.6549 67.2771 62.6472 66.8382 62.6697 66.4124L62.7194 65.4666L63.6286 65.7318C66.9611 66.7038 69.6538 67.6904 71.6309 68.8048C73.3949 69.799 74.6825 70.9474 75.2883 72.3666C74.4485 70.1059 72.2374 68.1687 67.9065 66.8949L67.8936 66.8911L67.8809 66.8869C67.3455 66.7084 66.8424 66.5328 66.3596 66.3644ZM65.6847 75.3307C65.1001 74.544 64.585 73.6921 64.1531 72.8091C64.7589 74.2532 65.5581 75.5475 66.7134 76.7027L66.7232 76.7125L66.7326 76.7227C67.369 77.408 68.008 77.8996 68.6251 78.2467C67.5046 77.458 66.5136 76.4458 65.6847 75.3307ZM75.4641 75.5154C75.8985 74.6465 75.911 73.8128 75.5015 72.9459C75.7846 73.7324 75.7967 74.5125 75.5112 75.1787C75.205 75.8931 74.5926 76.3875 73.8288 76.5784L73.617 76.6314L73.4098 76.5623C73.3252 76.5341 73.2444 76.4969 73.1683 76.455C73.3424 76.6533 73.5256 76.8555 73.7217 77.0632L73.7415 77.0583C74.7005 76.8185 75.2238 76.4027 75.4073 75.6689L75.4273 75.589L75.4641 75.5154Z" stroke="#333B41" stroke-width="1.5"/>
<path d="M90.7817 66.6734C90.4562 67.062 90.1084 67.4323 89.7404 67.7771C89.9069 67.6374 90.0745 67.4844 90.2426 67.317C90.4332 67.1067 90.6125 66.8922 90.7817 66.6734ZM93.9904 57.4629C93.9931 57.4482 93.9958 57.4336 93.9985 57.4189C92.4669 57.7173 90.8898 58.1955 89.1138 58.8616L89.1138 58.8617L89.1027 58.8656C85.6254 60.1075 83.7148 61.5078 82.8639 63.3818C83.4433 62.1922 84.4856 61.2208 85.9543 60.3771C87.6626 59.3957 90.0171 58.5465 93.0761 57.7122L93.9904 57.4629ZM83.9138 67.1641C83.613 67.0638 83.3531 66.9104 83.14 66.7123C83.3282 67.0575 83.5877 67.3413 83.9505 67.5208C84.0559 67.4112 84.1572 67.3037 84.2551 67.1978C84.2211 67.2009 84.1863 67.2025 84.1509 67.2025H84.0292L83.9138 67.1641Z" stroke="#333B41" stroke-width="1.5"/>
</g>
<defs>
<linearGradient id="paint0_linear_126_43" x1="-7.44304" y1="24.8889" x2="195.1" y2="114.913" gradientUnits="userSpaceOnUse">
<stop stop-color="#F9804B"/>
<stop offset="1" stop-color="#FE9013"/>
</linearGradient>
<clipPath id="clip0_126_43">
<rect width="168" height="244" rx="5" fill="white"/>
</clipPath>
</defs>
</svg>
