<svg width="95" height="104" viewBox="0 0 95 104" fill="none" xmlns="http://www.w3.org/2000/svg">
<g filter="url(#filter0_d_17137_3418)">
<path d="M43.7487 5.26397C43.3993 4.93634 43.0498 4.69607 42.7222 4.52134C42.3945 4.36844 42.0232 4.28107 41.6082 4.28107C41.1277 4.28107 40.7782 4.39028 40.5379 4.58686C40.2977 4.78344 40.1666 5.11108 40.1666 5.54792C40.1666 5.85371 40.2977 6.13766 40.5598 6.33424C40.8219 6.55266 41.1277 6.74924 41.5208 6.94582C41.914 7.1424 42.329 7.33898 42.7658 7.5574C43.2027 7.77582 43.6177 8.01609 44.0108 8.32188C44.404 8.62767 44.7098 8.97715 44.9719 9.41399C45.234 9.85083 45.3651 10.375 45.3651 10.9866C45.3651 11.9258 45.103 12.734 44.6006 13.4111C44.0982 14.0882 43.3119 14.5251 42.3072 14.7653V16.8185H40.4069V14.8527C39.839 14.7872 39.2274 14.6343 38.594 14.3722C37.9606 14.1101 37.4145 13.7824 36.9558 13.3674L38.2227 11.4235C38.725 11.7948 39.2056 12.0787 39.6424 12.2753C40.1011 12.4719 40.5598 12.5593 41.0185 12.5593C41.5645 12.5593 41.9795 12.4501 42.2198 12.2316C42.4819 12.0132 42.6129 11.6637 42.6129 11.2051C42.6129 10.8556 42.4819 10.5716 42.2198 10.3314C41.9577 10.0911 41.6519 9.87268 41.2587 9.65425C40.8656 9.43583 40.4506 9.21741 40.0137 8.99899C39.5769 8.78057 39.1619 8.51846 38.7687 8.21267C38.3756 7.90688 38.0698 7.5574 37.8077 7.1424C37.5455 6.7274 37.4145 6.24687 37.4145 5.65713C37.4145 4.69607 37.6766 3.88791 38.2008 3.25449C38.725 2.62106 39.4677 2.20606 40.385 2.03132V0H42.2853V1.98764C42.9187 2.07501 43.4648 2.27159 43.9453 2.55554C44.4258 2.83949 44.8408 3.18896 45.234 3.60396L43.7487 5.26397Z" fill="#333B41"/>
<path fill-rule="evenodd" clip-rule="evenodd" d="M90.7749 76.0006L87.1812 73.7891L79.1644 88.164L83.0346 90.0991L90.7749 76.0006Z" fill="#333B41"/>
<path fill-rule="evenodd" clip-rule="evenodd" d="M85.2457 73.2355C75.8467 62.4543 67.5535 65.2187 56.4959 72.4062C46.8205 78.7643 39.633 74.3413 32.4455 77.3821C30.7869 78.2114 28.2989 80.1465 30.5104 82.0816C31.6162 82.9109 36.0393 83.7403 37.4215 83.4638C44.8854 81.8052 47.0969 85.1225 58.431 82.9109C55.1137 85.3989 44.3325 83.7403 37.6979 84.5696C32.4455 85.6753 23.8759 81.5287 30.7869 76.8292C27.746 75.447 24.9816 74.6177 21.6643 74.3413C18.3471 71.8533 13.0947 68.8124 10.3303 67.7067C8.11874 66.3245 2.58993 66.8774 6.18366 70.4711C9.77739 73.7884 19.4528 81.2523 21.3879 82.358C29.1282 87.0575 36.3157 90.3748 43.7796 94.5214C43.7796 94.5214 46.2676 95.9036 51.2435 93.9686C54.8372 92.3099 70.8708 83.4638 74.741 84.846C76.9525 85.6753 78.0583 86.2282 78.0583 86.2282L85.2457 73.2355Z" stroke="#333B41" stroke-width="1.5"/>
<path fill-rule="evenodd" clip-rule="evenodd" d="M38.5278 72.406C39.0807 71.3003 39.6336 70.471 40.4629 70.1945C41.2922 69.9181 41.5687 70.471 42.1216 71.0238C42.6744 71.8532 42.9509 72.1296 43.7802 72.6825C44.0566 72.9589 44.6095 72.9589 44.886 72.9589L44.3331 72.6825C43.5038 72.1296 42.9509 71.5767 43.2273 70.471C43.2273 70.1945 42.9509 69.6416 43.5038 69.6416C44.0566 69.9181 44.886 70.471 45.7153 70.471C45.7153 70.471 46.5446 70.7474 46.2682 70.471C46.2682 70.1945 45.7153 69.9181 45.4388 69.6416C43.7802 68.2594 43.7802 67.983 43.7802 66.0479C44.0566 63.2835 42.9509 61.072 41.0158 59.1369C36.5927 54.7138 38.5278 48.6321 41.8451 42.8269C44.886 37.5745 47.6504 36.7452 44.6095 30.387C43.5038 27.6226 41.5687 24.8582 41.2922 23.1996C41.2922 22.6467 41.2922 22.9231 41.2922 23.1996C41.0158 24.8582 42.1216 27.3462 43.2273 29.8342C45.7153 35.363 45.1624 35.9159 41.5687 40.8918C37.6985 45.8677 34.9341 51.1201 36.5927 56.6489C37.6985 60.5191 43.2273 64.3893 40.4629 66.8772C39.0807 67.983 37.1456 70.7474 36.8692 72.406C36.5927 73.2354 36.5927 73.2354 36.3163 73.7882C36.0399 74.0647 36.3163 74.0647 36.5927 74.0647C37.9749 73.7882 37.9749 73.2354 38.5278 72.406Z" fill="#333B41"/>
<path d="M56.8429 46.529L57.755 46.2684L57.7981 47.2161C57.9459 50.4683 56.5534 54.3664 54.2642 57.4425C53.0772 59.0375 51.6155 60.4545 49.9547 61.4487C51.0478 61.074 52.2508 60.3838 53.4679 59.1695C56.7026 55.6792 57.5945 51.2419 58.6307 45.5536C57.6652 45.6402 56.7139 45.8564 55.737 46.1392C55.096 46.3247 54.4522 46.5364 53.786 46.757C53.7457 46.7704 53.7052 46.7838 53.6648 46.7972C53.0473 47.0018 52.4107 47.2127 51.7579 47.4089C46.6293 49.3021 43.8538 51.6595 42.8454 54.3645C42.5951 55.654 42.63 56.8192 43.0684 57.696L43.1052 57.7696L43.1251 57.8495C43.2985 58.5427 44 59.1847 44.9413 59.7019C45.9925 58.713 46.7253 57.8296 47.446 56.9124C47.2707 57.0928 47.1068 57.265 46.9519 57.428C46.8261 57.5602 46.7062 57.6863 46.5907 57.8057C46.3944 58.0085 46.2043 58.1985 46.0295 58.3497C45.8721 58.4858 45.6524 58.6584 45.3991 58.7429L45.2102 58.8059L45.0149 58.7668C44.1201 58.5879 43.4476 58.0935 43.1719 57.2664C42.9248 56.5252 43.0477 55.6546 43.3357 54.7804C43.83 52.8473 45.3457 51.3363 47.5888 50.0545C49.8467 48.7643 52.9586 47.6388 56.8429 46.529Z" stroke="#333B41" stroke-width="1.5"/>
<path d="M30.1344 28.3643C28.6582 27.8492 27.3723 27.4005 25.9336 27.1376C25.9829 27.3788 26.0313 27.6174 26.0792 27.8534C26.2097 28.4962 26.3363 29.1198 26.4655 29.7246C26.4297 29.2771 26.422 28.8382 26.4444 28.4123L26.4942 27.4666L27.4034 27.7318C30.7359 28.7037 33.4286 29.6903 35.4057 30.8047C37.1697 31.7989 38.4573 32.9473 39.0631 34.3665C38.2232 32.1059 36.0121 30.1686 31.6813 28.8948L31.6684 28.8911L31.6557 28.8868C31.1203 28.7083 30.6171 28.5328 30.1344 28.3643ZM29.4595 37.3306C28.8749 36.544 28.3598 35.692 27.9279 34.809C28.5337 36.2532 29.3329 37.5474 30.4881 38.7026L30.498 38.7124L30.5074 38.7226C31.1438 39.4079 31.7828 39.8995 32.3999 40.2466C31.2794 39.4579 30.2884 38.4458 29.4595 37.3306ZM39.2389 37.5153C39.6733 36.6464 39.6858 35.8128 39.2763 34.9459C39.5594 35.7323 39.5714 36.5125 39.2859 37.1786C38.9798 37.893 38.3674 38.3874 37.6036 38.5784L37.3917 38.6313L37.1845 38.5623C37.1 38.5341 37.0191 38.4969 36.943 38.4549C37.1171 38.6533 37.3004 38.8554 37.4965 39.0632L37.5163 39.0582C38.4752 38.8185 38.9986 38.4027 39.1821 37.6688L39.202 37.589L39.2389 37.5153Z" stroke="#333B41" stroke-width="1.5"/>
<path d="M54.5566 28.6732C54.2311 29.0618 53.8833 29.4321 53.5153 29.7769C53.6818 29.6372 53.8494 29.4842 54.0175 29.3168C54.2081 29.1065 54.3874 28.892 54.5566 28.6732ZM57.7653 19.4627C57.768 19.448 57.7707 19.4334 57.7734 19.4187C56.2418 19.7171 54.6647 20.1954 52.8887 20.8614L52.8887 20.8615L52.8776 20.8654C49.4003 22.1073 47.4897 23.5076 46.6388 25.3816C47.2182 24.192 48.2605 23.2206 49.7292 22.3769C51.4375 21.3955 53.792 20.5463 56.851 19.712L57.7653 19.4627ZM47.6887 29.1639C47.3879 29.0636 47.128 28.9102 46.9149 28.7121C47.1031 29.0573 47.3626 29.3412 47.7254 29.5207C47.8308 29.4111 47.9321 29.3035 48.03 29.1976C47.996 29.2007 47.9612 29.2024 47.9258 29.2024H47.8041L47.6887 29.1639Z" stroke="#333B41" stroke-width="1.5"/>
</g>
<defs>
<filter id="filter0_d_17137_3418" x="0.249878" y="0" width="94.525" height="103.75" filterUnits="userSpaceOnUse" color-interpolation-filters="sRGB">
<feFlood flood-opacity="0" result="BackgroundImageFix"/>
<feColorMatrix in="SourceAlpha" type="matrix" values="0 0 0 0 0 0 0 0 0 0 0 0 0 0 0 0 0 0 127 0" result="hardAlpha"/>
<feOffset dy="4"/>
<feGaussianBlur stdDeviation="2"/>
<feComposite in2="hardAlpha" operator="out"/>
<feColorMatrix type="matrix" values="0 0 0 0 0 0 0 0 0 0 0 0 0 0 0 0 0 0 0.25 0"/>
<feBlend mode="normal" in2="BackgroundImageFix" result="effect1_dropShadow_17137_3418"/>
<feBlend mode="normal" in="SourceGraphic" in2="effect1_dropShadow_17137_3418" result="shape"/>
</filter>
</defs>
</svg>
